<mxfile host="drawio-plugin" modified="2022-04-21T12:20:16.641Z" agent="5.0 (Macintosh; Intel Mac OS X 11_6_4) AppleWebKit/537.36 (KHTML, like Gecko) Chrome/89.0.4389.114 Safari/537.36" etag="1LGbs7vpqqV8buH0Qj1N" version="15.5.4" type="embed" pages="2"><diagram id="dyj6jYMNnaCiFXH7SBxR" name="Схема"><mxGraphModel dx="1645" dy="2000" grid="1" gridSize="10" guides="1" tooltips="1" connect="1" arrows="1" fold="1" page="1" pageScale="1" pageWidth="1169" pageHeight="827" background="#FFFFFF" math="0" shadow="0"><root><mxCell id="0"/><mxCell id="1" parent="0"/><mxCell id="9ElOrBx4syKhtCMLLyps-4" style="edgeStyle=orthogonalEdgeStyle;rounded=0;orthogonalLoop=1;jettySize=auto;html=1;entryX=0;entryY=0.5;entryDx=0;entryDy=0;" parent="1" source="9ElOrBx4syKhtCMLLyps-2" target="9ElOrBx4syKhtCMLLyps-3" edge="1"><mxGeometry relative="1" as="geometry"/></mxCell><mxCell id="9ElOrBx4syKhtCMLLyps-6" style="edgeStyle=orthogonalEdgeStyle;rounded=0;orthogonalLoop=1;jettySize=auto;html=1;entryX=0;entryY=0.5;entryDx=0;entryDy=0;" parent="1" source="9ElOrBx4syKhtCMLLyps-2" target="9ElOrBx4syKhtCMLLyps-5" edge="1"><mxGeometry relative="1" as="geometry"/></mxCell><mxCell id="9ElOrBx4syKhtCMLLyps-8" style="edgeStyle=orthogonalEdgeStyle;rounded=0;orthogonalLoop=1;jettySize=auto;html=1;entryX=0;entryY=0.5;entryDx=0;entryDy=0;" parent="1" source="9ElOrBx4syKhtCMLLyps-2" target="9ElOrBx4syKhtCMLLyps-7" edge="1"><mxGeometry relative="1" as="geometry"/></mxCell><mxCell id="9ElOrBx4syKhtCMLLyps-2" value="Рабочая директория&lt;br&gt;агента" style="rounded=0;whiteSpace=wrap;html=1;" parent="1" vertex="1"><mxGeometry x="270" y="338" width="120" height="60" as="geometry"/></mxCell><mxCell id="9ElOrBx4syKhtCMLLyps-3" value="Директория с артифактами&amp;nbsp;" style="rounded=0;whiteSpace=wrap;html=1;" parent="1" vertex="1"><mxGeometry x="390" y="604" width="120" height="60" as="geometry"/></mxCell><mxCell id="9ElOrBx4syKhtCMLLyps-5" value="Директория для хранения файлов для сборки" style="rounded=0;whiteSpace=wrap;html=1;" parent="1" vertex="1"><mxGeometry x="390" y="440" width="120" height="60" as="geometry"/></mxCell><mxCell id="9ElOrBx4syKhtCMLLyps-7" value="Файл с хешами" style="rounded=0;whiteSpace=wrap;html=1;" parent="1" vertex="1"><mxGeometry x="390" y="524" width="120" height="60" as="geometry"/></mxCell><mxCell id="9ElOrBx4syKhtCMLLyps-9" value="Агент Консьюмер" style="rounded=0;whiteSpace=wrap;html=1;verticalAlign=top;" parent="1" vertex="1"><mxGeometry x="565" y="314" width="390" height="490" as="geometry"/></mxCell><mxCell id="9ElOrBx4syKhtCMLLyps-10" value="Агент Провайдер" style="rounded=0;whiteSpace=wrap;html=1;verticalAlign=top;" parent="1" vertex="1"><mxGeometry x="565" y="-190" width="390" height="480" as="geometry"/></mxCell><mxCell id="9ElOrBx4syKhtCMLLyps-16" style="edgeStyle=orthogonalEdgeStyle;rounded=0;orthogonalLoop=1;jettySize=auto;html=1;entryX=0.5;entryY=0;entryDx=0;entryDy=0;" parent="1" source="9ElOrBx4syKhtCMLLyps-13" target="9ElOrBx4syKhtCMLLyps-15" edge="1"><mxGeometry relative="1" as="geometry"/></mxCell><mxCell id="9ElOrBx4syKhtCMLLyps-23" style="edgeStyle=orthogonalEdgeStyle;rounded=0;orthogonalLoop=1;jettySize=auto;html=1;dashed=1;" parent="1" source="9ElOrBx4syKhtCMLLyps-13" target="9ElOrBx4syKhtCMLLyps-5" edge="1"><mxGeometry relative="1" as="geometry"/></mxCell><mxCell id="9ElOrBx4syKhtCMLLyps-13" value="Переместить файл в директорию для файлов для сборки" style="rounded=0;whiteSpace=wrap;html=1;" parent="1" vertex="1"><mxGeometry x="615" y="440" width="120" height="60" as="geometry"/></mxCell><mxCell id="9ElOrBx4syKhtCMLLyps-18" style="edgeStyle=orthogonalEdgeStyle;rounded=0;orthogonalLoop=1;jettySize=auto;html=1;entryX=0.5;entryY=0;entryDx=0;entryDy=0;" parent="1" source="9ElOrBx4syKhtCMLLyps-15" target="9ElOrBx4syKhtCMLLyps-17" edge="1"><mxGeometry relative="1" as="geometry"/></mxCell><mxCell id="9ElOrBx4syKhtCMLLyps-24" style="edgeStyle=orthogonalEdgeStyle;rounded=0;orthogonalLoop=1;jettySize=auto;html=1;entryX=1;entryY=0.5;entryDx=0;entryDy=0;dashed=1;" parent="1" source="9ElOrBx4syKhtCMLLyps-15" target="9ElOrBx4syKhtCMLLyps-7" edge="1"><mxGeometry relative="1" as="geometry"/></mxCell><mxCell id="9ElOrBx4syKhtCMLLyps-15" value="Получить хеш от файла и записать его в список" style="rounded=0;whiteSpace=wrap;html=1;" parent="1" vertex="1"><mxGeometry x="615" y="524" width="120" height="60" as="geometry"/></mxCell><mxCell id="9ElOrBx4syKhtCMLLyps-25" style="edgeStyle=orthogonalEdgeStyle;rounded=0;orthogonalLoop=1;jettySize=auto;html=1;dashed=1;" parent="1" source="9ElOrBx4syKhtCMLLyps-17" target="9ElOrBx4syKhtCMLLyps-3" edge="1"><mxGeometry relative="1" as="geometry"/></mxCell><mxCell id="9ElOrBx4syKhtCMLLyps-43" style="edgeStyle=orthogonalEdgeStyle;rounded=0;orthogonalLoop=1;jettySize=auto;html=1;exitX=0.5;exitY=1;exitDx=0;exitDy=0;" parent="1" source="9ElOrBx4syKhtCMLLyps-17" target="9ElOrBx4syKhtCMLLyps-41" edge="1"><mxGeometry relative="1" as="geometry"/></mxCell><mxCell id="9ElOrBx4syKhtCMLLyps-17" value="Сборка артифакта" style="rounded=0;whiteSpace=wrap;html=1;" parent="1" vertex="1"><mxGeometry x="615" y="604" width="120" height="60" as="geometry"/></mxCell><mxCell id="9ElOrBx4syKhtCMLLyps-42" style="edgeStyle=orthogonalEdgeStyle;rounded=0;orthogonalLoop=1;jettySize=auto;html=1;exitX=0.5;exitY=1;exitDx=0;exitDy=0;entryX=0.5;entryY=0;entryDx=0;entryDy=0;" parent="1" source="9ElOrBx4syKhtCMLLyps-26" target="9ElOrBx4syKhtCMLLyps-41" edge="1"><mxGeometry relative="1" as="geometry"><Array as="points"><mxPoint x="855" y="684"/><mxPoint x="755" y="684"/></Array></mxGeometry></mxCell><mxCell id="9ElOrBx4syKhtCMLLyps-26" value="Проверка на наличие артифакта" style="rounded=0;whiteSpace=wrap;html=1;" parent="1" vertex="1"><mxGeometry x="795" y="440" width="120" height="60" as="geometry"/></mxCell><mxCell id="9ElOrBx4syKhtCMLLyps-39" value="&lt;h1&gt;Схема работы контроля версий&lt;/h1&gt;&lt;p&gt;Процесс выполнения сборки с точки зрения системы контроля версий от получения файлов для сборки до выдачи&lt;/p&gt;" style="text;html=1;strokeColor=none;fillColor=none;spacing=5;spacingTop=-20;whiteSpace=wrap;overflow=hidden;rounded=0;" parent="1" vertex="1"><mxGeometry x="200" y="-180" width="240" height="140" as="geometry"/></mxCell><mxCell id="VhzPOg7rj_EaicALs-07-3" style="edgeStyle=orthogonalEdgeStyle;rounded=0;orthogonalLoop=1;jettySize=auto;html=1;fontColor=#FFCC99;entryX=1;entryY=0.5;entryDx=0;entryDy=0;" parent="1" source="9ElOrBx4syKhtCMLLyps-41" target="WevxN94N2kklGEovp1XY-10" edge="1"><mxGeometry relative="1" as="geometry"><mxPoint x="1080" y="230" as="targetPoint"/><Array as="points"><mxPoint x="1010" y="734"/><mxPoint x="1010" y="240"/></Array></mxGeometry></mxCell><mxCell id="9ElOrBx4syKhtCMLLyps-41" value="Отправка артифакта на контроллер" style="rounded=0;whiteSpace=wrap;html=1;" parent="1" vertex="1"><mxGeometry x="695" y="704" width="120" height="60" as="geometry"/></mxCell><mxCell id="9ElOrBx4syKhtCMLLyps-44" style="edgeStyle=orthogonalEdgeStyle;rounded=0;orthogonalLoop=1;jettySize=auto;html=1;exitX=0.5;exitY=1;exitDx=0;exitDy=0;entryX=0;entryY=0.5;entryDx=0;entryDy=0;dashed=1;" parent="1" source="9ElOrBx4syKhtCMLLyps-3" target="9ElOrBx4syKhtCMLLyps-41" edge="1"><mxGeometry relative="1" as="geometry"/></mxCell><mxCell id="WevxN94N2kklGEovp1XY-1" style="edgeStyle=orthogonalEdgeStyle;rounded=0;orthogonalLoop=1;jettySize=auto;html=1;entryX=0.5;entryY=0;entryDx=0;entryDy=0;" parent="1" source="WevxN94N2kklGEovp1XY-2" target="WevxN94N2kklGEovp1XY-4" edge="1"><mxGeometry relative="1" as="geometry"><mxPoint x="755" y="-103" as="targetPoint"/></mxGeometry></mxCell><mxCell id="VhzPOg7rj_EaicALs-07-2" style="edgeStyle=orthogonalEdgeStyle;rounded=0;orthogonalLoop=1;jettySize=auto;html=1;entryX=0;entryY=0.5;entryDx=0;entryDy=0;fontColor=#FFCC99;" parent="1" source="WevxN94N2kklGEovp1XY-2" target="WevxN94N2kklGEovp1XY-6" edge="1"><mxGeometry relative="1" as="geometry"><Array as="points"><mxPoint x="670" y="-120"/><mxPoint x="670" y="60"/></Array></mxGeometry></mxCell><mxCell id="WevxN94N2kklGEovp1XY-2" value="Генерация списка задач и их хешей всех файлов" style="rounded=0;whiteSpace=wrap;html=1;" parent="1" vertex="1"><mxGeometry x="700" y="-150" width="120" height="60" as="geometry"/></mxCell><mxCell id="WevxN94N2kklGEovp1XY-3" style="edgeStyle=orthogonalEdgeStyle;rounded=0;orthogonalLoop=1;jettySize=auto;html=1;entryX=0.5;entryY=0;entryDx=0;entryDy=0;" parent="1" source="WevxN94N2kklGEovp1XY-4" target="WevxN94N2kklGEovp1XY-6" edge="1"><mxGeometry relative="1" as="geometry"/></mxCell><mxCell id="WevxN94N2kklGEovp1XY-8" style="edgeStyle=orthogonalEdgeStyle;rounded=0;orthogonalLoop=1;jettySize=auto;html=1;entryX=0.5;entryY=0;entryDx=0;entryDy=0;" parent="1" source="WevxN94N2kklGEovp1XY-4" target="9ElOrBx4syKhtCMLLyps-26" edge="1"><mxGeometry relative="1" as="geometry"><Array as="points"><mxPoint x="855" y="-30"/></Array></mxGeometry></mxCell><mxCell id="WevxN94N2kklGEovp1XY-4" value="Отправка хешей всем доступным агентам" style="rounded=0;whiteSpace=wrap;html=1;" parent="1" vertex="1"><mxGeometry x="700" y="-60" width="120" height="60" as="geometry"/></mxCell><mxCell id="WevxN94N2kklGEovp1XY-5" style="edgeStyle=orthogonalEdgeStyle;rounded=0;orthogonalLoop=1;jettySize=auto;html=1;" parent="1" source="WevxN94N2kklGEovp1XY-6" target="WevxN94N2kklGEovp1XY-7" edge="1"><mxGeometry relative="1" as="geometry"/></mxCell><mxCell id="WevxN94N2kklGEovp1XY-6" value="Получение списка задач для сборки" style="rounded=0;whiteSpace=wrap;html=1;" parent="1" vertex="1"><mxGeometry x="700" y="30" width="120" height="60" as="geometry"/></mxCell><mxCell id="WevxN94N2kklGEovp1XY-9" style="edgeStyle=orthogonalEdgeStyle;rounded=0;orthogonalLoop=1;jettySize=auto;html=1;" parent="1" source="WevxN94N2kklGEovp1XY-7" target="9ElOrBx4syKhtCMLLyps-13" edge="1"><mxGeometry relative="1" as="geometry"><Array as="points"><mxPoint x="675" y="160"/></Array></mxGeometry></mxCell><mxCell id="WevxN94N2kklGEovp1XY-11" style="edgeStyle=orthogonalEdgeStyle;rounded=0;orthogonalLoop=1;jettySize=auto;html=1;" parent="1" source="WevxN94N2kklGEovp1XY-7" target="WevxN94N2kklGEovp1XY-10" edge="1"><mxGeometry relative="1" as="geometry"/></mxCell><mxCell id="WevxN94N2kklGEovp1XY-7" value="Отправка задач на сборку агентам" style="rounded=0;whiteSpace=wrap;html=1;" parent="1" vertex="1"><mxGeometry x="700" y="120" width="120" height="60" as="geometry"/></mxCell><mxCell id="WevxN94N2kklGEovp1XY-10" value="Получение собранных артифактов и их выдача" style="rounded=0;whiteSpace=wrap;html=1;" parent="1" vertex="1"><mxGeometry x="700" y="210" width="120" height="60" as="geometry"/></mxCell><mxCell id="VhzPOg7rj_EaicALs-07-1" value="&lt;div style=&quot;text-align: left&quot;&gt;&lt;span&gt;Поправить&lt;/span&gt;&lt;/div&gt;список хешей" style="text;html=1;align=center;verticalAlign=middle;resizable=0;points=[];autosize=1;strokeColor=none;fillColor=none;fontColor=#FFCC99;" parent="1" vertex="1"><mxGeometry x="825" y="-150" width="90" height="30" as="geometry"/></mxCell><mxCell id="bqnKEKgBYAbyb3EbUo1c-1" value="// TODO: схема работы агента, разделить схемы, временная диграмма для потоков" style="text;html=1;strokeColor=none;fillColor=none;align=center;verticalAlign=middle;whiteSpace=wrap;rounded=0;" parent="1" vertex="1"><mxGeometry x="250" y="140" width="250" height="80" as="geometry"/></mxCell></root></mxGraphModel></diagram><diagram id="ktCYhHrH8g-7YEuT9wKO" name="Интерфейсы"><mxGraphModel dx="1645" dy="1173" grid="1" gridSize="10" guides="1" tooltips="1" connect="1" arrows="1" fold="1" page="1" pageScale="1" pageWidth="1169" pageHeight="827" math="0" shadow="0"><root><mxCell id="ta4Cwy5dCAfMxrfX0BdC-0"/><mxCell id="ta4Cwy5dCAfMxrfX0BdC-1" parent="ta4Cwy5dCAfMxrfX0BdC-0"/><mxCell id="nBc0TmQdO7ZgYxgDb6Q0-0" value="&lt;h1&gt;Работа системы контроля версий&lt;/h1&gt;&lt;p&gt;С точки зрения распределения задач между интерфейсами&lt;/p&gt;" style="text;html=1;strokeColor=none;fillColor=none;spacing=5;spacingTop=-20;whiteSpace=wrap;overflow=hidden;rounded=0;" parent="ta4Cwy5dCAfMxrfX0BdC-1" vertex="1"><mxGeometry x="215" y="24" width="240" height="120" as="geometry"/></mxCell><mxCell id="7B7lR2EDdQQpW10fQZtu-5" style="edgeStyle=orthogonalEdgeStyle;rounded=0;orthogonalLoop=1;jettySize=auto;html=1;entryX=0.5;entryY=0;entryDx=0;entryDy=0;" parent="ta4Cwy5dCAfMxrfX0BdC-1" source="7B7lR2EDdQQpW10fQZtu-0" target="7B7lR2EDdQQpW10fQZtu-4" edge="1"><mxGeometry relative="1" as="geometry"/></mxCell><mxCell id="7B7lR2EDdQQpW10fQZtu-0" value="&lt;div style=&quot;text-align: left&quot;&gt;&lt;b&gt;IRemoteAgent&lt;/b&gt;&lt;/div&gt;CheckHashes" style="rounded=0;whiteSpace=wrap;html=1;" parent="ta4Cwy5dCAfMxrfX0BdC-1" vertex="1"><mxGeometry x="215" y="190" width="180" height="60" as="geometry"/></mxCell><mxCell id="ulmZEccbVBApJw6GBfn4-0" style="edgeStyle=orthogonalEdgeStyle;rounded=0;orthogonalLoop=1;jettySize=auto;html=1;entryX=0.5;entryY=0;entryDx=0;entryDy=0;" parent="ta4Cwy5dCAfMxrfX0BdC-1" source="7B7lR2EDdQQpW10fQZtu-1" target="pLQROoIjp89b6cflcCqg-1" edge="1"><mxGeometry relative="1" as="geometry"/></mxCell><mxCell id="7B7lR2EDdQQpW10fQZtu-1" value="&lt;div style=&quot;text-align: left&quot;&gt;&lt;b&gt;ITask&lt;/b&gt;&lt;/div&gt;GetPayload" style="rounded=0;whiteSpace=wrap;html=1;" parent="ta4Cwy5dCAfMxrfX0BdC-1" vertex="1"><mxGeometry x="450" y="290" width="180" height="60" as="geometry"/></mxCell><mxCell id="7B7lR2EDdQQpW10fQZtu-8" style="edgeStyle=orthogonalEdgeStyle;rounded=0;orthogonalLoop=1;jettySize=auto;html=1;entryX=0.5;entryY=0;entryDx=0;entryDy=0;" parent="ta4Cwy5dCAfMxrfX0BdC-1" source="7B7lR2EDdQQpW10fQZtu-4" target="7B7lR2EDdQQpW10fQZtu-7" edge="1"><mxGeometry relative="1" as="geometry"/></mxCell><mxCell id="7B7lR2EDdQQpW10fQZtu-4" value="&lt;div style=&quot;text-align: left&quot;&gt;&lt;b&gt;IHashManager&lt;/b&gt;&lt;/div&gt;GetArtifactsFromHashlist" style="rounded=0;whiteSpace=wrap;html=1;" parent="ta4Cwy5dCAfMxrfX0BdC-1" vertex="1"><mxGeometry x="215" y="290" width="180" height="60" as="geometry"/></mxCell><mxCell id="7B7lR2EDdQQpW10fQZtu-7" value="&lt;div style=&quot;text-align: left&quot;&gt;&lt;span&gt;&lt;b&gt;INetwork&lt;/b&gt;&lt;/span&gt;&lt;/div&gt;SendArtifactList" style="rounded=0;whiteSpace=wrap;html=1;align=center;" parent="ta4Cwy5dCAfMxrfX0BdC-1" vertex="1"><mxGeometry x="215" y="390" width="180" height="60" as="geometry"/></mxCell><mxCell id="ulmZEccbVBApJw6GBfn4-1" style="edgeStyle=orthogonalEdgeStyle;rounded=0;orthogonalLoop=1;jettySize=auto;html=1;entryX=0.5;entryY=0;entryDx=0;entryDy=0;" parent="ta4Cwy5dCAfMxrfX0BdC-1" source="7B7lR2EDdQQpW10fQZtu-11" target="7B7lR2EDdQQpW10fQZtu-1" edge="1"><mxGeometry relative="1" as="geometry"/></mxCell><mxCell id="7B7lR2EDdQQpW10fQZtu-11" value="&lt;div style=&quot;text-align: left&quot;&gt;&lt;b&gt;IRemoteAgent&lt;/b&gt;&lt;/div&gt;&lt;div style=&quot;text-align: left&quot;&gt;&lt;span&gt;DoTask&lt;/span&gt;&lt;/div&gt;" style="rounded=0;whiteSpace=wrap;html=1;" parent="ta4Cwy5dCAfMxrfX0BdC-1" vertex="1"><mxGeometry x="450" y="190" width="180" height="60" as="geometry"/></mxCell><mxCell id="pLQROoIjp89b6cflcCqg-1" value="&lt;div style=&quot;text-align: left&quot;&gt;&lt;b&gt;IHashManager&lt;/b&gt;&lt;/div&gt;&lt;div style=&quot;text-align: left&quot;&gt;GenerateFileHash&lt;/div&gt;" style="rounded=0;whiteSpace=wrap;html=1;" parent="ta4Cwy5dCAfMxrfX0BdC-1" vertex="1"><mxGeometry x="450" y="390" width="180" height="60" as="geometry"/></mxCell><mxCell id="pLQROoIjp89b6cflcCqg-9" style="edgeStyle=orthogonalEdgeStyle;rounded=0;orthogonalLoop=1;jettySize=auto;html=1;entryX=0.5;entryY=0;entryDx=0;entryDy=0;" parent="ta4Cwy5dCAfMxrfX0BdC-1" source="pLQROoIjp89b6cflcCqg-6" target="pLQROoIjp89b6cflcCqg-8" edge="1"><mxGeometry relative="1" as="geometry"/></mxCell><mxCell id="pLQROoIjp89b6cflcCqg-6" value="&lt;div style=&quot;text-align: left&quot;&gt;&lt;b&gt;IController&lt;/b&gt;&lt;/div&gt;&lt;div style=&quot;text-align: left&quot;&gt;BuildContent&lt;/div&gt;" style="rounded=0;whiteSpace=wrap;html=1;" parent="ta4Cwy5dCAfMxrfX0BdC-1" vertex="1"><mxGeometry x="780" y="190" width="180" height="60" as="geometry"/></mxCell><mxCell id="_8C6AqdNXHwlSMg23AnS-1" style="edgeStyle=orthogonalEdgeStyle;rounded=0;orthogonalLoop=1;jettySize=auto;html=1;entryX=0.5;entryY=0;entryDx=0;entryDy=0;" parent="ta4Cwy5dCAfMxrfX0BdC-1" source="pLQROoIjp89b6cflcCqg-8" target="_8C6AqdNXHwlSMg23AnS-0" edge="1"><mxGeometry relative="1" as="geometry"/></mxCell><mxCell id="pLQROoIjp89b6cflcCqg-8" value="&lt;div style=&quot;text-align: left&quot;&gt;&lt;b&gt;IHashManager&lt;/b&gt;&lt;/div&gt;&lt;div style=&quot;text-align: left&quot;&gt;GenerateFileHash&lt;/div&gt;" style="rounded=0;whiteSpace=wrap;html=1;" parent="ta4Cwy5dCAfMxrfX0BdC-1" vertex="1"><mxGeometry x="780" y="290" width="180" height="60" as="geometry"/></mxCell><mxCell id="pLQROoIjp89b6cflcCqg-10" value="For each file" style="text;html=1;align=center;verticalAlign=middle;resizable=0;points=[];autosize=1;strokeColor=none;fillColor=none;" parent="ta4Cwy5dCAfMxrfX0BdC-1" vertex="1"><mxGeometry x="890" y="260" width="80" height="20" as="geometry"/></mxCell><mxCell id="_8C6AqdNXHwlSMg23AnS-3" style="edgeStyle=orthogonalEdgeStyle;rounded=0;orthogonalLoop=1;jettySize=auto;html=1;entryX=0.5;entryY=0;entryDx=0;entryDy=0;" parent="ta4Cwy5dCAfMxrfX0BdC-1" source="_8C6AqdNXHwlSMg23AnS-0" target="_8C6AqdNXHwlSMg23AnS-2" edge="1"><mxGeometry relative="1" as="geometry"/></mxCell><mxCell id="_8C6AqdNXHwlSMg23AnS-0" value="&lt;div style=&quot;text-align: left&quot;&gt;&lt;span&gt;&lt;b&gt;INetwork&lt;/b&gt;&lt;/span&gt;&lt;/div&gt;&lt;div style=&quot;text-align: left&quot;&gt;&lt;span&gt;GetExistingArtifactList&lt;/span&gt;&lt;/div&gt;" style="rounded=0;whiteSpace=wrap;html=1;align=center;" parent="ta4Cwy5dCAfMxrfX0BdC-1" vertex="1"><mxGeometry x="780" y="390" width="180" height="60" as="geometry"/></mxCell><mxCell id="_8C6AqdNXHwlSMg23AnS-6" style="edgeStyle=orthogonalEdgeStyle;rounded=0;orthogonalLoop=1;jettySize=auto;html=1;entryX=0.5;entryY=0;entryDx=0;entryDy=0;" parent="ta4Cwy5dCAfMxrfX0BdC-1" source="_8C6AqdNXHwlSMg23AnS-2" target="_8C6AqdNXHwlSMg23AnS-5" edge="1"><mxGeometry relative="1" as="geometry"/></mxCell><mxCell id="_8C6AqdNXHwlSMg23AnS-2" value="&lt;div style=&quot;text-align: left&quot;&gt;&lt;span&gt;&lt;b&gt;INetwork&lt;/b&gt;&lt;/span&gt;&lt;/div&gt;&lt;div style=&quot;text-align: left&quot;&gt;&lt;span&gt;CollectArtifact&lt;/span&gt;&lt;/div&gt;" style="rounded=0;whiteSpace=wrap;html=1;align=center;" parent="ta4Cwy5dCAfMxrfX0BdC-1" vertex="1"><mxGeometry x="780" y="490" width="180" height="60" as="geometry"/></mxCell><mxCell id="_8C6AqdNXHwlSMg23AnS-4" value="For each existsing" style="text;html=1;align=center;verticalAlign=middle;resizable=0;points=[];autosize=1;strokeColor=none;fillColor=none;" parent="ta4Cwy5dCAfMxrfX0BdC-1" vertex="1"><mxGeometry x="890" y="460" width="110" height="20" as="geometry"/></mxCell><mxCell id="_8C6AqdNXHwlSMg23AnS-5" value="&lt;div style=&quot;text-align: left&quot;&gt;&lt;b&gt;IController&lt;/b&gt;&lt;br&gt;&lt;/div&gt;&lt;div style=&quot;text-align: left&quot;&gt;&lt;span&gt;// Remove existing artifacts from list and build list&lt;/span&gt;&lt;/div&gt;" style="rounded=0;whiteSpace=wrap;html=1;align=center;" parent="ta4Cwy5dCAfMxrfX0BdC-1" vertex="1"><mxGeometry x="780" y="590" width="180" height="60" as="geometry"/></mxCell></root></mxGraphModel></diagram></mxfile>